PathFileType	4	(X/Y/Z)	C:\Users\°ÂÌØÂü\Desktop\20210112\bx_n_0_503-Unnamed.trc
DataRate	CameraRate	NumFrames	NumMarkers	Units	OrigDataRate	OrigDataStartFrame	OrigNumFrames
50.00	50.00	       4	0	mm	50.00	292	       333
Frame#	Time	
		

292	5.820	-711.35803	101.20055	1852.98462	-705.47546	280.51645	1534.56213	-580.19415	106.20928	1358.17969	-578.52576	-4.17301	803.15448	-687.67023	143.46587	575.23840	-583.49884	221.89461	793.28357	-686.73718	270.28165	743.60175	-721.94379	253.36293	641.81409	-669.96039	204.10002	533.73358	-760.62579	259.11197	502.07422	-517.64691	-73.11451	143.54079	-689.60254	71.82134	574.46637	-549.33344	-24.02607	163.79361	-675.79559	52.24448	159.96817	-795.45227	180.27103	184.76691	-764.59045	227.69873	205.91637	-589.18744	207.83365	174.23553	-882.57434	296.15549	144.64362	-552.68567	243.19365	165.97015	-652.41138	291.75549	156.94011	-615.19885	297.77557	158.69664	-528.17377	303.96555	146.50659	-680.03394	-81.37735	1538.30676	-791.34955	91.89790	1060.67358	-793.99225	37.85947	174.72736	-755.30072	-46.65993	489.84998	-600.61755	28.31550	167.69876	-875.85522	-78.73365	141.22168	-650.77197	-73.66431	872.45618	-674.33862	-61.74007	757.53601	-720.26245	69.00325	217.28641	-702.28827	-37.31397	616.18329	-710.50458	-34.70389	569.20923	-714.77557	150.42043	217.23256	-675.19037	166.75412	157.89453	-606.27606	-71.80302	158.09074	-648.40454	-67.74393	162.07277	-759.81946	-20.78238	207.37157	-662.77466	13.59974	519.67474	-598.09247	240.51482	1066.31580	-583.68134	-4.81323	1053.83362				-679.64905	285.96118	874.00757				-721.14227	247.49094	575.88098	
293	5.840	-712.43634	100.44450	1853.04492	-706.21741	280.18423	1534.32886	-579.80646	105.86888	1358.40698	-577.99762	-3.21486	803.09802	-687.14899	143.52626	575.01947	-582.57922	221.43324	793.17480	-685.90662	270.35529	743.54834	-721.52533	253.08823	641.71503	-669.76288	204.12306	533.68109	-760.18915	258.60730	501.87473	-517.67078	-73.01729	143.40648	-689.41479	71.52357	574.18475	-549.33392	-24.13473	163.92911	-675.90955	52.32979	160.07999	-795.51831	180.32832	184.86093	-764.53265	227.73402	205.80548	-588.87103	207.77205	174.34183	-882.48743	296.05096	144.59955	-552.72565	243.08517	165.94075	-652.53058	291.64474	156.81700	-615.31067	297.55023	158.68971	-528.36823	304.21506	146.52583	-680.92493	-81.81837	1538.15430	-790.01703	91.46014	1060.65479	-793.93042	37.78567	174.74077	-754.93945	-46.95971	489.82327	-600.63757	28.44912	167.66643	-875.85034	-78.68372	141.27127	-649.97070	-73.98395	872.32129	-673.85376	-62.06358	757.72906	-720.36627	68.92687	217.17484	-701.66266	-37.43682	615.83484	-709.88165	-34.71038	568.89221	-714.65393	150.38359	217.37450	-675.44263	166.57509	158.29468	-606.27362	-72.06699	158.29680	-648.40454	-67.74393	162.07277	-759.93872	-20.78435	207.14128	-662.84772	13.42491	519.44635	-596.90253	240.48582	1066.20081	-582.62823	-4.99544	1053.60120				-678.81573	285.66302	873.80835				-720.42493	247.28894	576.08820	
294	5.860	-713.37244	100.13017	1852.93921	-706.72852	279.71396	1534.11182	-579.82178	105.74189	1358.61829	-577.48486	-3.35907	802.51575	-686.57678	143.38501	574.76501	-581.67517	221.09254	793.36902	-685.29358	270.14441	743.35828	-721.28168	253.32181	641.97205	-669.38013	203.92319	533.61493	-759.61932	258.08673	501.90259	-517.78040	-73.04750	143.22989	-689.27673	71.49751	574.04956	-549.50488	-24.13206	163.89238	-675.70752	52.22294	160.09930	-795.34229	180.38855	184.80864	-764.50146	227.69290	205.95033	-588.95770	207.73630	174.40436	-882.48578	296.13718	144.66689	-552.57690	243.13368	166.06731	-652.58356	291.75137	157.06828	-615.40356	297.67673	158.68689	-528.11023	304.21655	146.67133	-681.74005	-82.28795	1537.85413	-788.91913	91.35022	1060.65015	-793.98730	37.56567	174.97232	-754.74719	-47.29852	489.75082	-600.74500	28.30949	167.76390	-875.85522	-78.73365	141.22168	-648.87976	-74.03806	872.07819	-673.24725	-62.48616	757.55884	-720.39752	68.65932	216.69237	-701.07123	-37.73552	615.94147	-709.36926	-35.22260	569.02380	-714.65393	150.38359	217.37450	-675.31604	166.59100	157.95660	-606.14642	-72.09901	158.37810	-648.40454	-67.74393	162.07277	-759.79248	-21.11776	207.36241	-662.52655	13.30518	519.57898	-596.10516	240.00603	1066.20007	-581.81964	-5.63091	1053.03040				-678.44568	285.35172	873.59442				-719.87201	246.91174	575.93311	
295	5.880	-714.24976	99.68678	1852.86108	-707.36493	279.42337	1534.13757	-579.70483	105.61823	1358.76416	-577.39978	-3.42273	802.17255	-684.62390	143.16901	574.72015	-581.36139	221.21602	793.17438	-684.68457	270.20236	743.42450	-720.97473	252.98009	642.00006	-669.05786	203.77423	533.64496	-759.45282	258.22925	502.07779	-517.67078	-73.01729	143.40648	-689.01575	71.22036	574.08209	-549.45917	-24.05613	163.80067	-675.79559	52.24448	159.96817	-795.15363	180.13870	184.61143	-764.58337	227.59982	205.75961	-589.22070	207.69298	174.19571	-882.44019	296.05743	144.65327	-552.72571	243.22272	165.77119	-652.58356	291.75137	157.06828	-615.40356	297.67673	158.68689	-528.21887	304.07733	146.44493	-682.46619	-82.58357	1537.63196	-787.87836	90.91154	1060.69031	-794.04926	37.64259	174.92554	-754.53674	-47.64188	489.83005	-600.69598	28.45703	167.75780	-875.95374	-78.68990	141.32727	-647.98444	-74.61804	872.37640	-672.35809	-62.44214	757.12738	-720.42578	68.55361	216.89410	-700.68842	-38.17865	616.05377	-709.21179	-35.49971	569.16443	-714.49353	150.30205	217.32881	-675.25000	166.78734	158.17351	-606.13153	-71.92078	158.18896	-648.27264	-67.75723	162.06621	-759.82648	-20.71709	207.18115	-662.19067	13.06871	519.31433	-594.99860	239.83768	1065.84924	-580.36151	-5.91532	1053.17969				-677.43671	285.78735	874.29852				-719.64935	246.88434	576.00720	
